<svg width="100" height="100" viewBox="0 0 100 100" fill="none" xmlns="http://www.w3.org/2000/svg">
<circle cx="50" cy="50" r="50" fill="white"/>
<g clip-path="url(#clip0)">
<path d="M44.3 79.9C44.3 79.9 44.2 79.9 44.3 79.9C43.8 79.8 43.5 79.5 43.4 79.1L41.8 65.1L35.1 69.6C34.8 69.8 34.4 69.8 34.1 69.6C33.8 69.4 33.7 69 33.8 68.6L36.5 60L24 61.6C23.6 61.7 23.2 61.4 23.1 61.1C22.9 60.7 23 60.3 23.3 60.1L31.6 52.8L23.3 45C23.1 44.8 23 44.5 23 44.2C23 43.9 23.3 43.6 23.6 43.6L33.2 40.8L26.9 27C26.7 26.6 26.8 26.2 27.2 25.9C27.5 25.6 28 25.7 28.3 25.9L41.1 36.2L43.2 26.6C43.3 26.3 43.6 26 43.9 25.9C44.3 25.8 44.6 26 44.8 26.3L50.3 35.3L59.1 21.4C59.3 21.1 59.7 20.9 60.1 21C60.5 21.1 60.7 21.5 60.7 21.9L59.4 34.5L68.4 30.6C68.7 30.5 69.1 30.5 69.4 30.8C69.7 31.1 69.7 31.4 69.6 31.8L66 40L76.1 42.3C76.4 42.4 76.7 42.7 76.8 43C76.9 43.3 76.7 43.7 76.4 43.9L68.2 49.2L76.5 56.2C76.8 56.4 76.9 56.9 76.7 57.2C76.6 57.6 76.2 57.8 75.8 57.7L66.1 56.9L69.6 67.7C69.7 68.1 69.6 68.5 69.3 68.7C69 68.9 68.6 68.9 68.3 68.7L59 61.9L57.1 74.2C57 74.6 56.8 74.9 56.4 74.9C56 75 55.7 74.8 55.5 74.5L50.1 65.5L45.2 79.4C45 79.7 44.7 79.9 44.3 79.9ZM42.6 62.7C42.7 62.7 42.8 62.7 43 62.8C43.3 62.9 43.5 63.2 43.5 63.5L44.8 75.2L49 63.1C49.1 62.8 49.4 62.6 49.7 62.5C50 62.5 50.4 62.6 50.5 62.9L55.6 71.5L57.4 60.2C57.4 59.9 57.7 59.6 57.9 59.5C58.2 59.4 58.5 59.4 58.8 59.6L67 65.7L63.9 56.2C63.8 55.9 63.9 55.6 64 55.4C64.2 55.2 64.5 55.1 64.8 55.1L73.1 55.8L66 49.8C65.8 49.6 65.7 49.4 65.7 49.1C65.7 48.8 65.9 48.6 66.1 48.4L73.5 43.6L64.4 41.5C64.1 41.4 63.9 41.3 63.8 41C63.7 40.8 63.7 40.5 63.8 40.3L66.9 33.2L58.5 36.8C58.4 36.9 58.1 36.9 57.9 36.7C57.6 36.5 57.5 36.2 57.5 35.9L58.6 25.6L51.1 37.6C50.9 37.8 50.6 37.9 50.3 37.9C50 37.9 49.7 37.7 49.6 37.5L44.5 29.1L42.5 37.9C42.4 38.2 42.2 38.4 41.9 38.5C41.6 38.6 41.3 38.5 41.1 38.4L30.1 29.6L35.3 41C35.4 41.2 35.4 41.5 35.3 41.7C35.2 41.9 35 42.1 34.7 42.2L25.6 44.9L33.5 52.3C33.7 52.5 33.8 52.7 33.8 53C33.8 53.2 33.7 53.5 33.5 53.6L26.6 59.6L37.6 58.2C37.9 58.2 38.2 58.3 38.4 58.5C38.6 58.7 38.7 59 38.6 59.3L36.3 66.8L42.1 62.9C42.2 62.7 42.4 62.7 42.6 62.7Z" fill="#0077FF"/>
<path d="M47.8 41.1V47.2H42.6L40.9 51.4H47.8V57.5H52V51.4H57.2L58.9 47.2H52V41.1H47.8Z" fill="black"/>
</g>
<defs>
<clipPath id="clip0">
<rect width="53.8" height="58.9" fill="white" transform="translate(23 21)"/>
</clipPath>
</defs>
</svg>
