<svg width="100" height="100" viewBox="0 0 100 100" fill="none" xmlns="http://www.w3.org/2000/svg">
<circle cx="50" cy="50" r="50" fill="white"/>
<g clip-path="url(#clip0)">
<path d="M49.7 59.4C49.4 59.4 49.1 59.3 48.9 59L37.5 43.8C37.3 43.5 37.2 43.1 37.4 42.8C37.6 42.5 37.9 42.2 38.3 42.2H43V28C43 27.4 43.4 27 44 27H55.4C56 27 56.4 27.4 56.4 28V42.2H61.1C61.5 42.2 61.8 42.4 62 42.8C62.2 43.1 62.1 43.5 61.9 43.8L50.5 59C50.3 59.2 50 59.4 49.7 59.4ZM40.3 44.2L49.7 56.7L59.1 44.2H55.4C54.8 44.2 54.4 43.8 54.4 43.2V29H45V43.2C45 43.8 44.6 44.2 44 44.2H40.3Z" fill="#0077FF"/>
<path d="M64.9 72.3H34.5C30.4 72.3 27 68.9 27 64.8V34.5C27 30.4 30.4 27 34.5 27C35.1 27 35.5 27.4 35.5 28C35.5 28.6 35.1 29 34.5 29C31.5 29 29 31.5 29 34.5V64.8C29 67.8 31.5 70.3 34.5 70.3H64.8C67.8 70.3 70.3 67.8 70.3 64.8V34.5C70.3 31.5 67.8 29 64.8 29C64.2 29 63.8 28.6 63.8 28C63.8 27.4 64.2 27 64.8 27C68.9 27 72.3 30.4 72.3 34.5V64.8C72.4 68.9 69 72.3 64.9 72.3Z" fill="black"/>
<path d="M49.7 67.5C49.4 67.5 49.1 67.4 48.9 67.1L39.1 54C38.8 53.6 38.9 52.9 39.3 52.6C39.7 52.3 40.4 52.4 40.7 52.8L49.7 64.8L58.7 52.8C59 52.4 59.7 52.3 60.1 52.6C60.5 52.9 60.6 53.6 60.3 54L50.5 67.1C50.3 67.3 50 67.5 49.7 67.5Z" fill="#0077FF"/>
</g>
<defs>
<clipPath id="clip0">
<rect width="45.3" height="45.3" fill="white" transform="translate(27 27)"/>
</clipPath>
</defs>
</svg>
